<svg width="11" height="12" viewBox="0 0 11 12" fill="none" xmlns="http://www.w3.org/2000/svg">
<path d="M10.7165 1.2952C10.7995 1.37909 10.8641 1.47081 10.9103 1.57036C10.9569 1.66949 10.9799 1.78164 10.9792 1.9068L10.935 10.1677C10.9337 10.418 10.8464 10.6289 10.6731 10.8003C10.5003 10.9712 10.2888 11.056 10.0384 11.0547C9.7881 11.0534 9.57994 10.9688 9.41394 10.801C9.24795 10.6332 9.16562 10.4242 9.16696 10.1739L9.19977 4.04079L2.15305 11.0125C1.97478 11.1889 1.76822 11.2737 1.53335 11.2671C1.29891 11.2608 1.0935 11.1685 0.917129 10.9903C0.740761 10.812 0.65301 10.6029 0.653876 10.363C0.655577 10.1231 0.745559 9.91499 0.923824 9.73862L7.95482 2.78245L1.82174 2.74964C1.57141 2.7483 1.36325 2.66374 1.19726 2.49596C1.03126 2.32819 0.948936 2.11913 0.950275 1.8688C0.951614 1.61847 1.03869 1.40782 1.2115 1.23685C1.38473 1.06546 1.59652 0.980435 1.84684 0.981774L10.1077 1.02596C10.2329 1.02663 10.3448 1.0508 10.4434 1.09848C10.5425 1.14574 10.6335 1.21131 10.7165 1.2952Z" fill="#25508C"/>
</svg>
