<svg width="38" height="38" viewBox="0 0 38 38" fill="none" xmlns="http://www.w3.org/2000/svg">
<path d="M15.4375 6.56921C15.1226 6.56921 14.8205 6.69432 14.5978 6.91702C14.3751 7.13972 14.25 7.44177 14.25 7.75671V13.1005C14.25 13.4154 14.1249 13.7175 13.9022 13.9402C13.6795 14.1629 13.3774 14.288 13.0625 14.288H8.3125C7.99756 14.288 7.69551 14.4131 7.47281 14.6358C7.25011 14.8585 7.125 15.1605 7.125 15.4755V22.5648C7.125 22.8798 7.25011 23.1818 7.47281 23.4045C7.69551 23.6272 7.99756 23.7523 8.3125 23.7523H13.0625C13.3774 23.7523 13.6795 23.8775 13.9022 24.1002C14.1249 24.3228 14.25 24.6249 14.25 24.9398V29.6898C14.25 30.0048 14.3751 30.3068 14.5978 30.5295C14.8205 30.7522 15.1226 30.8773 15.4375 30.8773H22.5625C22.8774 30.8773 23.1795 30.7522 23.4022 30.5295C23.6249 30.3068 23.75 30.0048 23.75 29.6898V24.9398C23.75 24.6249 23.8751 24.3228 24.0978 24.1002C24.3205 23.8775 24.6226 23.7523 24.9375 23.7523H29.6875C30.0024 23.7523 30.3045 23.6272 30.5272 23.4045C30.7499 23.1818 30.875 22.8798 30.875 22.5648V15.4398C30.875 15.1249 30.7499 14.8228 30.5272 14.6002C30.3045 14.3775 30.0024 14.2523 29.6875 14.2523H24.9375C24.6226 14.2523 24.3205 14.1272 24.0978 13.9045C23.8751 13.6818 23.75 13.3798 23.75 13.0648V7.75671C23.75 7.44177 23.6249 7.13972 23.4022 6.91702C23.1795 6.69432 22.8774 6.56921 22.5625 6.56921H15.4375ZM11.875 7.75671C11.875 6.81188 12.2503 5.90574 12.9184 5.23765C13.5865 4.56955 14.4927 4.19421 15.4375 4.19421H22.5625C23.5073 4.19421 24.4135 4.56955 25.0816 5.23765C25.7497 5.90574 26.125 6.81188 26.125 7.75671V11.875H29.6875C30.6323 11.875 31.5385 12.2503 32.2066 12.9184C32.8747 13.5865 33.25 14.4926 33.25 15.4375V22.5625C33.25 23.5073 32.8747 24.4134 32.2066 25.0815C31.5385 25.7496 30.6323 26.125 29.6875 26.125H26.125V29.6875C26.125 30.6323 25.7497 31.5384 25.0816 32.2065C24.4135 32.8746 23.5073 33.25 22.5625 33.25H15.4375C14.4927 33.25 13.5865 32.8746 12.9184 32.2065C12.2503 31.5384 11.875 30.6323 11.875 29.6875V26.125H8.3125C7.36767 26.125 6.46153 25.7496 5.79343 25.0815C5.12533 24.4134 4.75 23.5073 4.75 22.5625V15.4778C4.75 14.533 5.12533 13.6269 5.79343 12.9588C6.46153 12.2907 7.36767 11.9153 8.3125 11.9153H11.875V7.75671Z" fill="#F9981B"/>
</svg>
