<svg width="36" height="36" viewBox="0 0 36 36" fill="none" xmlns="http://www.w3.org/2000/svg">
<g clip-path="url(#clip0_1_115)">
<path fill-rule="evenodd" clip-rule="evenodd" d="M16.158 4.03198C16.6847 3.62232 17.3328 3.3999 18 3.3999C18.6672 3.3999 19.3154 3.62232 19.842 4.03198L32.418 13.812C33.5475 14.6925 32.9235 16.5 31.4955 16.5H30V28.5C30 29.2956 29.684 30.0587 29.1214 30.6213C28.5587 31.1839 27.7957 31.5 27 31.5H9.00003C8.20438 31.5 7.44132 31.1839 6.87871 30.6213C6.3161 30.0587 6.00003 29.2956 6.00003 28.5V16.5H4.50453C3.07503 16.5 2.45403 14.691 3.58203 13.8135L16.158 4.03198ZM8.43753 13.8375C8.78103 14.115 9.00003 14.5395 9.00003 15.015V28.5H27V15.015C27 14.5395 27.219 14.115 27.5625 13.8375L18 6.40048L8.43753 13.8375Z" fill="#25508C"/>
</g>
<defs>
<clipPath id="clip0_1_115">
<rect width="36" height="36" fill="white"/>
</clipPath>
</defs>
</svg>
