<svg width="36" height="36" viewBox="0 0 36 36" fill="none" xmlns="http://www.w3.org/2000/svg">
<path d="M13.2 16.8C11.6088 16.8 10.0826 16.1679 8.95741 15.0427C7.83219 13.9174 7.20005 12.3913 7.20005 10.8V6.00002C7.20005 5.68176 7.32648 5.37654 7.55152 5.1515C7.77656 4.92645 8.08179 4.80002 8.40005 4.80002H9.60005C9.91831 4.80002 10.2235 4.6736 10.4486 4.44855C10.6736 4.22351 10.8 3.91828 10.8 3.60002C10.8 3.28176 10.6736 2.97654 10.4486 2.7515C10.2235 2.52645 9.91831 2.40002 9.60005 2.40002H8.40005C7.44527 2.40002 6.5296 2.77931 5.85446 3.45444C5.17933 4.12957 4.80005 5.04525 4.80005 6.00002V10.8C4.80159 12.1557 5.13218 13.4908 5.76341 14.6905C6.39464 15.8903 7.30766 16.9189 8.42405 17.688C9.49664 18.6337 10.3665 19.7868 10.9811 21.0779C11.5957 22.369 11.9423 23.7713 12 25.2C12 27.4278 12.885 29.5644 14.4604 31.1397C16.0357 32.715 18.1722 33.6 20.4 33.6C22.6279 33.6 24.7644 32.715 26.3397 31.1397C27.9151 29.5644 28.8 27.4278 28.8 25.2V23.832C29.9312 23.54 30.9171 22.8454 31.5728 21.8784C32.2285 20.9115 32.509 19.7386 32.3618 18.5796C32.2146 17.4206 31.6497 16.3551 30.7731 15.5828C29.8965 14.8105 28.7683 14.3844 27.6 14.3844C26.4318 14.3844 25.3036 14.8105 24.427 15.5828C23.5504 16.3551 22.9855 17.4206 22.8383 18.5796C22.6911 19.7386 22.9716 20.9115 23.6273 21.8784C24.283 22.8454 25.2689 23.54 26.4 23.832V25.2C26.4 26.7913 25.7679 28.3174 24.6427 29.4427C23.5175 30.5679 21.9913 31.2 20.4 31.2C18.8088 31.2 17.2826 30.5679 16.1574 29.4427C15.0322 28.3174 14.4 26.7913 14.4 25.2C14.4608 23.7695 14.8112 22.3662 15.4299 21.075C16.0487 19.7838 16.9231 18.6315 18 17.688C19.112 16.9162 20.0204 15.8864 20.6473 14.6868C21.2743 13.4873 21.6012 12.1536 21.6 10.8V6.00002C21.6 5.04525 21.2208 4.12957 20.5456 3.45444C19.8705 2.77931 18.9548 2.40002 18 2.40002H16.8C16.4818 2.40002 16.1766 2.52645 15.9515 2.7515C15.7265 2.97654 15.6 3.28176 15.6 3.60002C15.6 3.91828 15.7265 4.22351 15.9515 4.44855C16.1766 4.6736 16.4818 4.80002 16.8 4.80002H18C18.3183 4.80002 18.6235 4.92645 18.8486 5.1515C19.0736 5.37654 19.2 5.68176 19.2 6.00002V10.8C19.2 11.588 19.0449 12.3682 18.7433 13.0961C18.4418 13.8241 17.9998 14.4855 17.4427 15.0427C16.8855 15.5998 16.2241 16.0418 15.4961 16.3433C14.7682 16.6448 13.988 16.8 13.2 16.8ZM27.6 21.6C26.9635 21.6 26.3531 21.3472 25.903 20.8971C25.4529 20.447 25.2001 19.8365 25.2001 19.2C25.2001 18.5635 25.4529 17.9531 25.903 17.503C26.3531 17.0529 26.9635 16.8 27.6 16.8C28.2366 16.8 28.847 17.0529 29.2971 17.503C29.7472 17.9531 30 18.5635 30 19.2C30 19.8365 29.7472 20.447 29.2971 20.8971C28.847 21.3472 28.2366 21.6 27.6 21.6Z" fill="#F9981B"/>
</svg>
