<svg width="16" height="17" class="mobileSVG" viewBox="0 0 16 17" fill="none" xmlns="http://www.w3.org/2000/svg">
<g clip-path="url(#clip0_46_326)">
<path id="mobileSVG" fill-rule="evenodd" clip-rule="evenodd" d="M3.72659 1.94794C3.38783 1.94794 3.04187 2.0938 2.69068 2.46112L2.68689 2.46508L2.68303 2.46895C2.37986 2.77283 2.16996 3.10504 2.03853 3.45994L2.0375 3.46274C1.90269 3.82083 1.83325 4.21381 1.83325 4.63252C1.83325 5.28608 1.97503 5.98775 2.27375 6.74182C2.57663 7.49922 2.99647 8.27187 3.52497 9.05273C4.06225 9.83665 4.66493 10.5874 5.33351 11.3048C6.00894 12.0154 6.71599 12.6562 7.46139 13.2347C8.19392 13.8013 8.92772 14.2479 9.65592 14.5775C10.3724 14.9019 11.0323 15.0521 11.6333 15.0521C12.0365 15.0521 12.4042 14.9729 12.7409 14.8238L12.7437 14.8226C12.9815 14.719 13.2024 14.573 13.4118 14.3778C13.4908 14.3042 13.5686 14.2231 13.6453 14.1342L13.8553 13.8521C13.9211 13.7485 13.978 13.641 14.0278 13.529C14.1101 13.3438 14.1466 13.1591 14.1466 12.9838C14.1466 12.8697 14.1252 12.7625 14.0792 12.638C14.0479 12.5659 13.9941 12.4923 13.8887 12.4147L13.8838 12.4112L11.6814 10.7498C11.5351 10.6444 11.4143 10.5739 11.3106 10.5288C11.2158 10.4876 11.1467 10.4763 11.0933 10.4763C11.0291 10.4763 10.9647 10.4927 10.8799 10.5475L10.8658 10.5567L10.8512 10.5647C10.7592 10.6158 10.6399 10.7105 10.4935 10.8661L10.4911 10.8685L9.98539 11.3988C9.82359 11.57 9.61225 11.6734 9.35992 11.6734C9.26119 11.6734 9.14412 11.6615 9.01772 11.6112L9.00692 11.6069L8.99632 11.6021C8.96605 11.5883 8.93812 11.5746 8.91992 11.5657C8.89832 11.5552 8.89099 11.5518 8.88759 11.5504L8.86285 11.5398L8.83932 11.5266C8.56899 11.3746 8.25172 11.1359 7.89025 10.811L7.88965 10.8104C7.52332 10.48 7.16705 10.123 6.80299 9.74336L6.79965 9.73982L6.79632 9.73627C6.44074 9.35115 6.11358 8.96724 5.8085 8.59267L5.80487 8.58821C5.50269 8.20875 5.27127 7.87251 5.12764 7.59272L5.10632 7.55121L5.09231 7.50658C5.09231 7.50658 5.0906 7.50155 5.08193 7.47981C5.08121 7.47797 5.08042 7.47605 5.07959 7.47393C5.07128 7.4531 5.05816 7.42024 5.04509 7.38319L5.03509 7.35486L5.02818 7.32553C5.00664 7.23402 4.99325 7.14073 4.99325 7.03377C4.99325 6.79349 5.07032 6.56414 5.24231 6.37912L5.74961 5.81884L5.75303 5.8152C5.89038 5.66927 5.98589 5.53696 6.04464 5.42653L6.04862 5.41905L6.05282 5.41172C6.10335 5.32352 6.11992 5.24808 6.11992 5.18502C6.11992 5.13951 6.10753 5.06263 6.06701 4.96221L6.06375 4.95411C6.02149 4.84437 5.95604 4.71787 5.85415 4.56752L5.85212 4.56451L4.30213 2.24327C4.2371 2.14347 4.15611 2.07512 4.05706 2.02654L4.05019 2.02318C3.95532 1.97479 3.84324 1.94794 3.72659 1.94794ZM1.99297 1.69994C2.49427 1.17726 3.08031 0.885437 3.72659 0.885437C3.98204 0.885437 4.24199 0.943081 4.47953 1.06351C4.72495 1.18456 4.94865 1.36989 5.12256 1.63572L6.66679 3.94827C6.80345 4.15019 6.91039 4.34774 6.98779 4.54777C7.06639 4.7438 7.11992 4.96292 7.11992 5.18502C7.11992 5.45905 7.04479 5.72097 6.91125 5.95667C6.79779 6.16807 6.64277 6.37195 6.46367 6.56274L6.00451 7.06987C6.00915 7.08153 6.01539 7.09731 6.02214 7.11558C6.12192 7.30145 6.2986 7.56304 6.56651 7.89964C6.85992 8.25982 7.17112 8.62476 7.50685 8.98856C7.86145 9.35824 8.19732 9.69413 8.53645 10.0001C8.85712 10.2883 9.10699 10.4721 9.28859 10.577C9.30325 10.5837 9.31679 10.5902 9.32779 10.5956L9.78759 10.1135C9.96992 9.91994 10.1654 9.74938 10.3741 9.63095C10.5921 9.49303 10.8297 9.41377 11.0933 9.41377C11.2932 9.41377 11.4907 9.4591 11.6893 9.54538C11.8779 9.6274 12.0625 9.74024 12.2477 9.87405L12.2519 9.87709L14.4605 11.5431C14.6969 11.7176 14.8822 11.9386 14.9976 12.2173L15.001 12.2256L15.0042 12.234C15.0891 12.4596 15.1466 12.704 15.1466 12.9838C15.1466 13.3185 15.0764 13.6579 14.9321 13.9827C14.8585 14.1481 14.7724 14.3098 14.671 14.467C14.5894 14.5935 14.4985 14.7162 14.3971 14.8351C14.2929 14.9571 14.1843 15.0712 14.0713 15.1766C13.7837 15.4447 13.4695 15.6547 13.1243 15.8051C12.6614 16.0098 12.1629 16.1146 11.6333 16.1146C10.8742 16.1146 10.0808 15.9248 9.26392 15.555C8.45892 15.1906 7.65959 14.7023 6.87232 14.0932L6.87165 14.0927C6.08439 13.4818 5.33875 12.8057 4.62808 12.0579L4.62465 12.0543C3.9209 11.2993 3.28443 10.5069 2.71571 9.67684L2.71401 9.67444C2.14975 8.84094 1.68999 7.99923 1.35305 7.15645L1.35243 7.15489C1.01138 6.29431 0.833252 5.45207 0.833252 4.63252C0.833252 4.08841 0.923652 3.56104 1.10849 3.06953C1.2965 2.56244 1.59181 2.10309 1.99297 1.69994Z" fill="#F9981B"/>
</g>
<defs>
<clipPath id="clip0_46_326">
<rect width="16" height="17" fill="white"/>
</clipPath>
</defs>
</svg>
