<svg width="34" height="34" viewBox="0 0 34 34" fill="none" xmlns="http://www.w3.org/2000/svg">
<path d="M23.5256 0V1.84109C22.4521 2.02546 21.4327 2.44489 20.5404 3.06936L19.1892 1.79919L17.3889 3.72409L18.6982 4.95105C18.0992 5.82405 17.6942 6.81531 17.5106 7.85804H15.6697V10.477H17.5106C17.7018 11.5638 18.1312 12.5537 18.7388 13.4232L17.347 14.772L19.2324 16.6576L20.5809 15.2643C21.4503 15.8719 22.4402 16.3014 23.5269 16.4926V18.3324H26.1455V16.4913C27.188 16.3081 28.1791 15.9035 29.0521 15.3049L30.2776 16.6144L32.2023 14.8126L30.9323 13.4638C31.5477 12.5865 31.9667 11.5717 32.1604 10.4756H34V7.85673H32.1591C31.9707 6.79647 31.5514 5.79063 30.931 4.91046L32.1591 3.68219L30.3169 1.84109L29.0901 3.06936C28.21 2.4489 27.2043 2.02957 26.1442 1.84109V0H23.5256ZM24.8349 4.33822C25.47 4.33405 26.0997 4.45607 26.6874 4.6972C27.275 4.93834 27.8089 5.29378 28.2581 5.74292C28.7073 6.19205 29.0629 6.72593 29.3041 7.31358C29.5454 7.90123 29.6676 8.53094 29.6636 9.16619C29.6636 11.8571 27.5255 13.9955 24.8349 13.9955C22.1443 13.9955 20.0062 11.8571 20.0062 9.16619C20.0062 6.47526 22.1443 4.33692 24.8349 4.33692V4.33822ZM7.8532 12.0706L5.44147 13.0526L6.38155 15.4228C5.13014 16.1717 4.07747 17.211 3.31254 18.4528L0.981978 17.51L0 19.926L2.33056 20.8662C2.14663 21.5745 2.05076 22.3028 2.04513 23.0346C2.04513 23.781 2.15642 24.5091 2.33056 25.2031L0 26.1459L0.981978 28.5592L3.31254 27.6164C4.07049 28.8745 5.12397 29.9285 6.38155 30.6871L5.43885 33.0179L7.85451 34L8.79721 31.6692C9.50537 31.8536 10.2337 31.9495 10.9654 31.9546C11.7117 31.9546 12.4423 31.8433 13.1336 31.6692L14.0763 34L16.4894 33.0179L15.5467 30.6871C16.7892 29.9232 17.8286 28.8701 18.5764 27.6177L20.9462 28.5579L21.9282 26.1446L19.5584 25.2018C19.7286 24.5078 19.8438 23.7784 19.8438 23.0333C19.8438 22.2869 19.7299 21.5562 19.5558 20.8635L21.9295 19.9234L20.9476 17.5074L18.5777 18.4502C17.8257 17.2116 16.7865 16.1723 15.548 15.4201L16.4907 13.05L14.075 12.0679L13.1362 14.4381C12.4274 14.2553 11.6988 14.1598 10.9667 14.1539C10.2204 14.1539 9.49245 14.2665 8.79852 14.4394L7.85582 12.0692L7.8532 12.0706ZM10.9641 16.7741C14.4508 16.7741 17.2226 19.5502 17.2226 23.0359C17.2252 26.523 14.4508 29.337 10.9641 29.337C10.1364 29.3381 9.3167 29.1758 8.55184 28.8595C7.78698 28.5432 7.09202 28.0791 6.50677 27.4938C5.92152 26.9085 5.45748 26.2134 5.14122 25.4485C4.82496 24.6835 4.66271 23.8637 4.66374 23.0359C4.66374 19.5489 7.47874 16.7741 10.9641 16.7741Z" fill="#F9981B"/>
</svg>
